# xmcd
#
# Track frame offsets:
#	180
#	13316
#	27461
#	42056
#	52151
#	65432
#	77432
#	90721
#	103543
#	117196
#	128461
#	136076
#	148244
#	160198
#	173181
#	183262
#
# Disc length: 2648 seconds
#
# Revision: 1
# Processed by: cddbd v1.5.2PL0 Copyright (c) Steve Scherf et al.
# Submitted via: audiograbber 1.83.01
#
DISCID=d20a5610
DTITLE=Verschiedene - Country Rare Roots - Country Blues CD 02
DYEAR=1900
DGENRE=Country
TTITLE0=Dock Boggs - Country Blues
TTITLE1=The Carter Family - Wildwood Flowers
TTITLE2=Jimmie Rodgers - Down On The Old Road To Home
TTITLE3=Bob Wills - Liza Pull Down The Shades
TTITLE4=Joe Werner - Runing Around
TTITLE5=Cliff Bruner - When You're Smiling
TTITLE6=Jimmy Hart - Teeny Weeny
TTITLE7=Spade Cooley - Shame On You
TTITLE8=Bob Wills - Faded Love
TTITLE9=Johnny Baond - Tomorrow Never Comes
TTITLE10=Bob Wills - Cotton Eyed Joe
TTITLE11=Hank Williams - Honky Tonkin'
TTITLE12=The Delmore Brothers - Peach Street Boogie
TTITLE13=Johnny Bond - Birmingham Jail
TTITLE14=Louis Innis - Jug Band Boogie
TTITLE15=Bill Haley - My Mom Heard Me Crying
EXTD=
EXTT0=
EXTT1=
EXTT2=
EXTT3=
EXTT4=
EXTT5=
EXTT6=
EXTT7=
EXTT8=
EXTT9=
EXTT10=
EXTT11=
EXTT12=
EXTT13=
EXTT14=
EXTT15=
PLAYORDER=
